<?xml version="1.0" encoding="UTF-8" ?>
<!DOCTYPE svg PUBLIC "-//W3C//DTD SVG 1.1//EN" "http://www.w3.org/Graphics/SVG/1.1/DTD/svg11.dtd">
<svg width="840pt" height="911pt" viewBox="0 0 840 911" version="1.1" xmlns="http://www.w3.org/2000/svg">
<g id="#ffffffff">
<path fill="#ffffff" opacity="1.00" d=" M 12.70 18.69 C 16.21 13.38 19.18 7.70 23.02 2.62 C 25.17 3.45 27.05 4.80 28.97 6.03 C 96.91 48.44 164.83 90.87 232.79 133.25 C 233.81 134.08 235.16 133.83 236.18 133.15 C 268.12 116.11 302.57 103.95 337.80 95.89 C 347.40 93.43 357.29 92.39 367.00 90.37 C 371.47 89.80 376.02 89.71 380.42 88.65 C 411.13 85.26 442.22 85.31 472.96 88.44 C 483.71 89.97 494.58 90.91 505.16 93.50 C 510.50 94.02 515.68 95.37 520.81 96.91 C 532.49 98.96 543.73 102.87 555.13 106.09 C 561.79 108.92 568.92 110.44 575.52 113.43 C 589.90 118.96 603.93 125.34 617.61 132.43 C 618.87 133.03 620.43 134.02 621.77 132.97 C 678.44 95.28 734.76 57.08 791.49 19.49 C 792.56 18.48 793.92 19.50 794.34 20.62 C 798.77 27.49 803.38 34.25 807.92 41.04 C 808.53 41.87 808.89 42.80 809.01 43.83 C 756.74 78.55 704.84 113.80 652.54 148.48 C 651.58 149.26 650.06 149.66 649.76 151.00 C 722.04 197.15 779.41 266.36 810.88 346.16 C 822.20 373.62 829.80 402.50 834.51 431.77 C 835.87 436.61 835.92 441.65 836.60 446.60 C 838.56 456.29 838.56 466.22 839.38 476.04 C 839.78 481.82 839.00 487.72 840.00 493.43 L 840.00 504.57 C 838.86 511.95 839.99 519.57 838.95 527.01 C 838.19 545.14 835.08 563.06 831.85 580.88 C 829.40 590.56 827.77 600.43 824.78 609.99 C 818.16 634.70 808.34 658.43 797.36 681.46 C 793.95 686.59 792.04 692.53 788.71 697.69 C 754.72 759.54 704.42 812.33 644.37 849.38 C 620.79 863.93 595.73 876.08 569.79 885.81 C 560.28 888.64 551.18 892.86 541.40 894.72 C 534.07 896.91 526.74 899.24 519.19 900.51 C 513.99 902.17 508.62 903.21 503.23 904.03 C 495.28 905.56 487.29 906.92 479.21 907.52 C 469.25 909.54 459.06 909.57 448.96 910.38 C 442.52 910.75 435.96 910.03 429.59 911.00 L 425.41 911.00 C 422.68 910.20 419.81 910.69 417.01 910.53 C 399.98 910.55 383.02 908.86 366.17 906.51 C 356.58 904.33 346.62 903.86 337.20 900.90 C 292.56 890.92 249.49 873.54 210.61 849.38 C 206.91 847.06 203.41 844.42 199.52 842.41 C 186.47 833.29 173.52 823.97 161.42 813.60 C 120.78 779.27 86.89 737.01 62.10 689.95 C 51.72 669.44 42.32 648.39 35.47 626.40 C 31.81 615.61 28.41 604.67 26.29 593.47 C 23.40 584.48 22.84 574.96 20.51 565.84 C 19.77 560.31 19.02 554.79 18.43 549.25 C 14.96 526.67 14.96 503.76 15.42 480.95 C 15.11 475.62 16.68 470.42 16.61 465.10 C 16.93 455.75 18.80 446.55 19.53 437.23 C 21.68 425.11 23.64 412.92 26.84 401.03 C 29.71 386.53 34.87 372.61 39.47 358.59 C 47.24 337.52 56.41 316.95 67.34 297.31 C 71.38 291.24 74.29 284.50 78.59 278.61 C 109.81 228.93 151.94 186.25 200.83 153.86 C 202.10 153.14 203.36 152.41 204.66 151.74 C 204.52 150.61 203.18 150.29 202.43 149.64 C 137.34 109.08 72.29 68.45 7.26 27.81 C 8.62 24.53 10.99 21.79 12.70 18.69 M 255.59 238.52 C 248.83 247.33 243.54 257.81 242.41 268.92 C 242.55 274.61 241.62 280.54 243.34 286.02 C 243.95 292.22 247.50 297.59 249.86 303.24 C 260.45 321.26 279.79 332.97 300.05 336.62 C 307.50 338.33 315.34 337.52 322.98 337.57 C 332.30 335.90 342.08 334.39 350.36 329.40 C 365.30 322.20 378.15 309.44 383.56 293.59 C 384.62 290.31 385.68 287.11 386.49 283.80 C 386.79 276.12 387.16 268.27 385.10 260.86 C 384.21 259.50 384.00 257.86 383.70 256.30 C 381.40 256.08 379.01 256.24 376.89 257.20 C 370.47 258.55 364.18 260.47 357.77 261.79 C 355.52 267.12 355.85 273.30 353.89 278.77 C 352.76 284.40 352.22 290.14 350.93 295.80 L 350.09 295.74 C 348.03 286.45 346.86 276.97 345.10 267.72 C 344.12 265.68 345.37 262.50 342.58 261.55 C 334.71 260.26 327.11 257.65 319.31 255.91 C 318.09 254.95 315.02 256.15 315.08 254.05 C 323.81 251.72 332.61 249.62 341.38 247.41 C 342.44 247.00 344.19 246.96 344.48 245.60 C 344.88 236.73 348.07 228.18 348.65 219.39 C 344.04 218.11 339.88 215.46 335.05 214.95 C 306.93 207.36 274.59 215.97 255.59 238.52 M 510.04 218.18 C 506.07 219.10 502.92 221.91 499.17 223.38 C 488.85 230.10 479.31 238.91 474.24 250.34 C 467.71 261.62 467.08 275.32 469.51 287.81 C 471.04 293.93 474.19 299.47 476.96 305.09 C 487.28 321.10 504.48 332.12 523.04 335.89 C 531.78 338.48 540.97 337.57 549.99 337.54 C 558.98 335.80 568.35 334.28 576.35 329.38 C 589.13 323.40 599.87 313.04 606.61 300.75 C 607.98 296.34 610.56 292.37 611.49 287.81 C 613.52 277.45 613.36 266.33 609.67 256.32 C 606.61 255.79 603.69 256.87 600.87 257.89 C 595.08 258.79 589.49 260.63 583.79 261.81 C 581.51 267.11 581.91 273.32 579.89 278.77 C 578.75 284.40 578.24 290.15 576.92 295.80 L 576.08 295.73 C 573.84 285.86 572.85 275.74 570.64 265.98 C 570.53 264.53 570.90 262.31 568.88 262.07 C 559.69 259.52 550.29 257.65 541.16 254.91 L 541.10 254.09 C 549.82 251.70 558.62 249.63 567.38 247.42 C 568.45 247.01 570.17 246.95 570.49 245.60 C 571.04 236.76 573.82 228.18 574.64 219.37 C 570.62 218.35 567.05 216.08 562.96 215.30 C 553.01 212.34 542.54 212.04 532.21 212.47 C 524.76 214.04 516.96 214.79 510.04 218.18 M 353.11 222.16 C 353.45 230.08 355.64 237.96 357.11 245.82 C 357.20 247.92 359.56 247.52 361.00 247.77 C 367.98 249.29 374.83 251.48 381.86 252.79 C 381.74 251.07 381.12 249.38 379.94 248.11 C 377.85 245.16 376.54 241.61 373.90 239.08 C 368.07 232.29 361.18 226.00 353.11 222.16 M 579.11 222.16 C 578.60 225.46 580.33 228.71 580.36 232.04 C 580.30 234.51 581.49 236.74 581.80 239.16 C 582.49 241.83 582.40 244.77 583.73 247.24 C 591.87 248.44 599.71 251.41 607.83 252.73 C 608.02 250.28 605.61 249.06 605.12 246.77 C 598.92 236.47 589.82 227.56 579.11 222.16 M 454.51 364.63 C 451.51 365.74 448.20 365.21 445.11 366.01 C 441.75 366.79 438.06 365.70 434.94 367.28 C 426.03 368.13 417.53 371.11 408.75 372.86 C 402.91 375.13 396.54 375.95 390.95 378.91 C 378.35 382.77 367.05 389.73 355.14 395.29 C 346.89 400.94 338.07 405.84 330.43 412.36 C 327.39 414.29 325.12 417.13 322.22 419.25 C 307.39 431.06 294.90 445.57 284.03 461.06 C 280.51 464.76 278.84 469.68 275.84 473.75 C 273.03 477.79 271.49 482.53 268.63 486.52 C 266.79 492.62 262.79 497.83 261.18 504.04 C 257.44 512.52 255.40 521.63 252.64 530.44 C 251.50 535.33 251.29 540.44 249.53 545.18 C 249.30 547.62 249.76 550.22 248.60 552.49 C 248.09 555.47 248.92 558.67 247.62 561.51 C 247.19 572.25 247.33 583.01 247.53 593.76 C 249.29 600.03 248.66 606.79 250.33 613.04 C 250.17 616.83 252.33 620.16 252.40 623.95 C 253.65 630.49 256.29 636.70 257.92 643.19 C 259.41 648.74 262.20 653.79 263.92 659.24 C 265.51 662.36 267.46 665.34 268.40 668.75 C 270.60 673.43 273.47 677.72 275.67 682.46 C 279.75 687.72 282.51 693.94 286.95 698.99 C 291.70 705.50 296.61 711.94 302.28 717.70 C 309.67 726.96 319.17 734.13 328.05 741.86 C 337.41 749.43 347.50 756.04 357.93 762.03 C 361.11 763.84 364.59 765.12 367.52 767.36 C 372.30 768.48 376.03 772.05 380.85 773.10 C 383.82 774.73 386.95 775.93 390.23 776.80 C 394.71 779.07 399.57 780.39 404.43 781.59 C 409.90 783.84 415.85 784.38 421.43 786.37 C 424.33 786.52 426.98 787.72 429.89 787.88 C 438.10 790.22 446.88 789.53 455.24 791.47 C 467.32 791.72 479.42 791.86 491.49 791.38 C 494.64 790.04 498.18 790.94 501.49 790.39 C 503.50 789.33 505.82 789.69 508.01 789.55 C 513.68 788.37 519.51 787.35 525.25 786.15 C 530.05 784.23 535.34 784.11 540.09 782.09 C 544.85 780.53 549.91 779.76 554.38 777.40 C 561.15 775.07 567.81 772.44 574.17 769.09 C 579.28 767.63 583.27 764.14 588.09 762.06 C 600.14 754.72 612.35 747.36 622.75 737.73 C 627.43 733.77 632.26 729.95 636.54 725.54 C 653.56 708.32 668.20 688.57 678.58 666.78 C 679.49 662.98 682.33 660.01 683.12 656.16 C 688.42 645.21 691.00 633.19 694.38 621.58 C 695.08 615.01 696.48 608.50 697.56 602.00 C 697.72 599.49 697.38 596.88 698.38 594.50 C 698.83 583.19 698.76 571.83 698.38 560.52 C 696.96 557.79 698.14 554.58 697.18 551.75 C 696.22 549.42 696.83 546.86 696.35 544.46 C 695.47 542.40 695.00 540.20 694.74 538.00 C 694.67 534.01 692.98 530.34 692.36 526.44 C 690.43 522.05 690.34 517.08 688.07 512.87 C 686.85 507.83 684.28 503.29 682.55 498.44 C 681.51 494.94 679.14 492.03 678.32 488.46 C 664.76 461.74 646.26 437.13 622.68 418.30 C 616.08 412.11 608.67 406.86 601.10 401.94 C 598.00 399.63 594.31 398.31 591.47 395.66 C 588.04 394.30 584.83 392.31 581.78 390.39 C 569.78 384.86 557.70 378.98 544.92 375.28 C 533.52 371.79 521.97 368.79 510.23 367.01 C 507.54 365.66 504.19 367.12 501.49 365.62 C 497.92 365.14 494.19 365.78 490.76 364.53 C 478.68 364.29 466.58 364.12 454.51 364.63 Z" />
</g>
</svg>
